<svg id="Ebene_1" data-name="Ebene 1" xmlns="http://www.w3.org/2000/svg" xmlns:xlink="http://www.w3.org/1999/xlink" viewBox="0 0 1000 1000"><defs><style>.cls-1{fill:#f15a24;}.cls-2{fill:url(#Unbenannter_Verlauf_28);}.cls-3{fill:url(#Unbenannter_Verlauf_36);}.cls-4{fill:url(#Unbenannter_Verlauf_42);}.cls-5{fill:url(#Unbenannter_Verlauf_47);}.cls-6{fill:url(#Unbenannter_Verlauf_62);}.cls-7{fill:url(#Unbenannter_Verlauf_67);}.cls-8{fill:url(#Unbenannter_Verlauf_57);}.cls-9{fill:url(#Unbenannter_Verlauf_52);}.cls-10{fill:url(#Unbenannter_Verlauf_16);}.cls-11{fill:url(#Unbenannter_Verlauf_20);}.cls-12{fill:#fff;stroke:#fff;stroke-linecap:round;stroke-linejoin:round;stroke-width:5px;}</style><linearGradient id="Unbenannter_Verlauf_28" x1="15.55" y1="159.38" x2="382" y2="525.83" gradientUnits="userSpaceOnUse"><stop offset="0" stop-color="#f35d01"/><stop offset="1" stop-color="#ffb400"/></linearGradient><linearGradient id="Unbenannter_Verlauf_36" x1="-44.89" y1="219.81" x2="321.56" y2="586.26" gradientUnits="userSpaceOnUse"><stop offset="0" stop-color="#fd8500"/><stop offset="1" stop-color="#ffcb00"/></linearGradient><linearGradient id="Unbenannter_Verlauf_42" x1="294.32" y1="655.58" x2="390.88" y2="559.02" gradientUnits="userSpaceOnUse"><stop offset="0" stop-color="#ff8f00"/><stop offset="1" stop-color="#ffc600"/></linearGradient><linearGradient id="Unbenannter_Verlauf_47" x1="373.43" y1="295.58" x2="373.43" y2="537.98" gradientUnits="userSpaceOnUse"><stop offset="0" stop-color="#ff9c01"/><stop offset="1" stop-color="#ffcb00"/></linearGradient><linearGradient id="Unbenannter_Verlauf_62" x1="813.41" y1="174.93" x2="813.41" y2="537.98" gradientUnits="userSpaceOnUse"><stop offset="0" stop-color="#fa7501"/><stop offset="1" stop-color="#ffb500"/></linearGradient><linearGradient id="Unbenannter_Verlauf_67" x1="1044.05" y1="218.98" x2="675.94" y2="587.09" gradientUnits="userSpaceOnUse"><stop offset="0" stop-color="#f42e01"/><stop offset="1" stop-color="#ff8500"/></linearGradient><linearGradient id="Unbenannter_Verlauf_57" x1="714.28" y1="672.25" x2="622.42" y2="541.07" gradientUnits="userSpaceOnUse"><stop offset="0" stop-color="#f50"/><stop offset="1" stop-color="#ff9000"/></linearGradient><linearGradient id="Unbenannter_Verlauf_52" x1="626.57" y1="295.58" x2="626.57" y2="537.98" gradientUnits="userSpaceOnUse"><stop offset="0" stop-color="#fc6500"/><stop offset="1" stop-color="#ff9100"/></linearGradient><linearGradient id="Unbenannter_Verlauf_16" x1="498.33" y1="295.58" x2="498.33" y2="537.98" gradientUnits="userSpaceOnUse"><stop offset="0" stop-color="#ff9101"/><stop offset="1" stop-color="#ffc300"/></linearGradient><linearGradient id="Unbenannter_Verlauf_20" x1="498.33" y1="825.07" x2="498.33" y2="537.98" gradientUnits="userSpaceOnUse"><stop offset="0" stop-color="#ff6c01"/><stop offset="1" stop-color="#ffb400"/></linearGradient></defs><title>logo colored 2@SVG</title><g id="network_polys" data-name="network polys"><path filter="url(#blur)" class="cls-1" d="M500,825.07,120.21,481.47C79.93,378.8,0,174.93,0,174.93S164.8,298.16,246.85,359.58l253.15-64,253.15,64L1000,174.93,879.79,481.47Z"/><polygon id="poly1" class="cls-2" points="369.84 537.99 246.85 359.58 0 174.93 369.84 537.99"/><polygon id="poly2" class="cls-3" points="0 174.93 120.21 481.46 369.84 537.99 0 174.93"/><polygon id="poly3" class="cls-4" points="485.85 812.27 120.21 481.46 369.84 537.99 485.85 812.27"/><polygon id="poly4" class="cls-5" points="246.85 359.58 500 295.58 369.84 537.99 246.85 359.58"/><polygon id="poly5" class="cls-6" points="626.83 537.99 753.15 359.58 1000 174.93 626.83 537.99"/><polygon id="poly6" class="cls-7" points="1000 174.93 879.79 481.46 626.83 537.99 1000 174.93"/><polygon id="poly7" class="cls-8" points="513.58 812.78 879.79 481.46 626.83 537.99 513.58 812.78"/><polygon id="poly8" class="cls-9" points="753.15 359.58 500 295.58 626.83 537.99 753.15 359.58"/><polygon id="poly_middle_1" data-name="poly middle 1" class="cls-10" points="500 295.58 369.84 537.99 626.83 537.99 500 295.58"/><polygon id="poly_middle_2" data-name="poly middle 2" class="cls-11" points="626.83 537.99 513.58 812.78 500 825.07 485.85 812.27 369.84 537.99 626.83 537.99"/></g><g id="eyes"><path class="cls-12" d="M257.2,549.17,422,661.31c-10.79-25.52-20.88-49.36-30.94-73.16Z"/><path class="cls-12" d="M576.53,660s106-71.75,158.93-107.77c.91-.61,1.74-1.33,3.71-2.84l-133,38.75Z"/></g><filter id="blur"><feGaussianBlur stdDeviation="50" /></filter></svg>