<svg id="Ebene_1" data-name="Ebene 1" xmlns="http://www.w3.org/2000/svg" xmlns:xlink="http://www.w3.org/1999/xlink" viewBox="0 0 1000 1000"><defs><style>.cls-1{fill:none;}.cls-2{fill:#fff;}.cls-3{clip-path:url(#clip-path);}.cls-4{fill:#f2f4f9;}.cls-5{fill:#e8eaef;}.cls-6{fill:#f4f6f9;}.cls-7{fill:#e6e7ef;}.cls-8{fill:#dfe0ea;}.cls-9{fill:#eaecf4;}.cls-10{fill:#f4f5f9;}.cls-11{fill:#e2e3ed;}.cls-12{fill:#ebecf2;}.cls-13{fill:#e2e4ed;}</style><clipPath id="clip-path"><path class="cls-1" d="M501.49,826.89,120.9,481.41C80.39,378.16,0,173.11,0,173.11S165.75,297.05,248.27,358.83l253.16-64.37,251.87,64.3L1000,178.12,882.15,481.23ZM579.85,661S686.48,588.85,739.7,552.62c.91-.62,1.75-1.34,3.73-2.86l-133.79,39Zm-186.54-72.3-134.62-39.2L424.43,662.3C413.58,636.63,403.43,612.65,393.31,588.71Z"/></clipPath></defs><title>logo@SVG</title><path class="cls-2" d="M501.49,826.89,120.9,481.41C80.39,378.16,0,173.11,0,173.11S165.75,297.05,248.27,358.83l253.16-64.37,251.87,64.3L1000,178.12,882.15,481.23ZM579.85,661S686.48,588.85,739.7,552.62c.91-.62,1.75-1.34,3.73-2.86l-133.79,39Zm-186.54-72.3-134.62-39.2L424.43,662.3C413.58,636.63,403.43,612.65,393.31,588.71Z"/><g class="cls-3"><polygon class="cls-4" points="781 321 991 274 1071 386 781 321"/><polygon class="cls-5" points="825 347 875 320 990 352 825 347"/><polygon class="cls-6" points="501 828 579.85 661.01 842.85 813.01 501 828"/><polygon class="cls-7" points="677 427 841.35 812.51 579.85 661.01 677 427"/><polygon class="cls-8" points="501 292 677 427 875 320 501 292"/><polygon class="cls-9" points="579.85 661.01 501 292 677 427 579.85 661.01"/><polygon class="cls-10" points="50 440 142 352 281 424 76 589 50 440"/><polygon class="cls-11" points="281 424 5 542.11 210 730 281 424"/><polygon class="cls-12" points="142 352 281 424 377 370 142 352"/><polygon class="cls-13" points="465.5 187.5 377 370 142 352 465.5 187.5"/><polygon class="cls-9" points="26 208 0 173 66 222 26 208"/><polygon class="cls-6" points="26 208 0 173 15 215 26 208"/></g></svg>