<svg xmlns="http://www.w3.org/2000/svg" width="30" height="31.129" viewBox="0 0 30 31.129"><defs><style>.a{fill:#fff;}</style></defs><g transform="translate(4 -9)"><g transform="translate(-4 9)"><path class="a" d="M37.867,8.539a7.542,7.542,0,0,0-4.951-2.6A7.216,7.216,0,0,0,25.558,0H17.606a4.864,4.864,0,0,0-4.751,3.82L9.393,19.389a4.809,4.809,0,0,0,.966,4.059A4.912,4.912,0,0,0,14.2,25.292h1.322l-.043.19a4.628,4.628,0,0,0,9.013,2.108l.8-3.313a1.213,1.213,0,0,1,1.182-.93h2.03a10.765,10.765,0,0,0,7.558-2.895,1.216,1.216,0,0,0-1.69-1.749,8.24,8.24,0,0,1-5.868,2.212h-2.03A3.638,3.638,0,0,0,22.932,23.7l-.8,3.313a2.2,2.2,0,0,1-4.277-1l1.932-8.568h2.532a12.662,12.662,0,0,0,5.2-1,8.627,8.627,0,0,0,3.762-3.2,1.216,1.216,0,1,0-2.038-1.326c-1.337,2.054-3.667,3.1-6.926,3.1H20.333l1.08-4.791a2.419,2.419,0,0,1,2.372-1.9h8.439c.035,0,.07,0,.1,0a5.19,5.19,0,0,1,3.643,1.737,5,5,0,0,1,.7,4.344,1.216,1.216,0,1,0,2.378.51A7.288,7.288,0,0,0,37.867,8.539ZM23.785,5.9a4.864,4.864,0,0,0-4.745,3.794c-.067.148-2.967,13-2.97,13.169H14.2a2.491,2.491,0,0,1-1.947-.937,2.386,2.386,0,0,1-.486-2.01L15.23,4.344a2.446,2.446,0,0,1,2.376-1.912h7.952A4.836,4.836,0,0,1,30.422,5.9Z" transform="translate(-9.281)"/></g></g></svg>