<svg xmlns="http://www.w3.org/2000/svg" width="30" height="31.302" viewBox="0 0 30 31.302"><defs><style>.a{fill:#fff;}</style></defs><g transform="translate(-10.649 0.001)"><g transform="translate(10.649 -0.001)"><g transform="translate(0 0)"><path class="a" d="M40.091.232A1.311,1.311,0,0,0,38.7.17L11.307,15.822a1.3,1.3,0,0,0,.235,2.37L20.5,21.177l.587,8.906a1.3,1.3,0,0,0,.947,1.169,1.332,1.332,0,0,0,.355.05,1.305,1.305,0,0,0,1.064-.55L28.375,23.8l6.644,2.215a1.287,1.287,0,0,0,.412.068,1.308,1.308,0,0,0,1.287-1.09L40.632,1.516A1.3,1.3,0,0,0,40.091.232ZM21.281,18.689,15.134,16.64,32.478,6.728Zm2.168,7.556-.275-4.176,2.617.873ZM34.4,23.061,24.006,19.6,37.35,5.343Z" transform="translate(-10.649 0.001)"/></g></g></g></svg>